<svg xmlns="http://www.w3.org/2000/svg" width="480" height="240" viewBox="0 0 480 240" role="img" aria-label="StackEdit editor and preview mockup">
  <rect x="0.75" y="0.75" width="478.5" height="238.5" fill="#fafafa" stroke="#e3e3e3" stroke-width="1.5"/>
  <rect x="0" y="0" width="120" height="6" fill="#ffd700"/>
  <rect x="120" y="0" width="120" height="6" fill="#a5c700"/>
  <rect x="240" y="0" width="120" height="6" fill="#ff8a00"/>
  <rect x="360" y="0" width="120" height="6" fill="#66aefd"/>
  <line x1="240" y1="38" x2="240" y2="220" stroke="#e0e0e0" stroke-width="1.5"/>
  <g fill="#9aa0a6">
    <rect x="32" y="58" width="60" height="6"/>
    <rect x="32" y="82" width="160" height="4"/>
    <rect x="32" y="96" width="140" height="4"/>
    <rect x="32" y="118" width="40" height="4"/>
    <rect x="32" y="132" width="170" height="4"/>
    <rect x="32" y="146" width="120" height="4"/>
    <rect x="32" y="170" width="50" height="6"/>
    <rect x="32" y="194" width="160" height="4"/>
    <rect x="32" y="208" width="100" height="4"/>
  </g>
  <rect x="266" y="56" width="130" height="10" fill="#202124"/>
  <g fill="#5f6368">
    <rect x="266" y="82" width="180" height="4"/>
    <rect x="266" y="94" width="160" height="4"/>
    <rect x="266" y="106" width="170" height="4"/>
  </g>
  <rect x="266" y="126" width="84" height="14" fill="#ffd700" fill-opacity="0.45"/>
  <rect x="272" y="131" width="72" height="4" fill="#5f6368"/>
  <rect x="266" y="158" width="80" height="8" fill="#202124"/>
  <g fill="#5f6368">
    <rect x="266" y="180" width="180" height="4"/>
    <rect x="266" y="192" width="120" height="4"/>
  </g>
</svg>
